HIERARCHY
ROOT mixamorig:Hips
{
	OFFSET -0.000008 104.274872 1.554316
	CHANNELS 6 Xposition Yposition Zposition Xrotation Yrotation Zrotation
	JOINT mixamorig:Spine
	{
		OFFSET -0.000005 10.181595 0.131519
		CHANNELS 6 Xposition Yposition Zposition Xrotation Yrotation Zrotation
		JOINT mixamorig:Spine1
		{
			OFFSET -0.000000 9.893959 -1.470707
			CHANNELS 6 Xposition Yposition Zposition Xrotation Yrotation Zrotation
			JOINT mixamorig:Spine2
			{
				OFFSET -0.000000 9.220757 -1.370641
				CHANNELS 6 Xposition Yposition Zposition Xrotation Yrotation Zrotation
				JOINT mixamorig:Neck
				{
					OFFSET 0.000001 16.740417 -2.049036
					CHANNELS 6 Xposition Yposition Zposition Xrotation Yrotation Zrotation
					JOINT mixamorig:Head
					{
						OFFSET 0.000000 9.617874 1.685006
						CHANNELS 6 Xposition Yposition Zposition Xrotation Yrotation Zrotation
						JOINT mixamorig:HeadTop_End
						{
							OFFSET 0.000002 22.037354 7.501101
							CHANNELS 6 Xposition Yposition Zposition Xrotation Yrotation Zrotation
							End Site
							{
								OFFSET 0.000168 2310.654297 -282.823242
							}
						}
					}
				}
				JOINT mixamorig:RightShoulder
				{
					OFFSET -4.569970 11.014908 -2.160885
					CHANNELS 6 Xposition Yposition Zposition Xrotation Yrotation Zrotation
					JOINT mixamorig:RightArm
					{
						OFFSET -10.592851 -0.524811 -2.232101
						CHANNELS 6 Xposition Yposition Zposition Xrotation Yrotation Zrotation
						JOINT mixamorig:RightForeArm
						{
							OFFSET -27.841511 0.000031 -0.000004
							CHANNELS 6 Xposition Yposition Zposition Xrotation Yrotation Zrotation
							JOINT mixamorig:RightHand
							{
								OFFSET -28.328831 -0.000015 0.000015
								CHANNELS 6 Xposition Yposition Zposition Xrotation Yrotation Zrotation
								JOINT mixamorig:RightHandThumb1
								{
									OFFSET -2.464806 -1.573990 2.681852
									CHANNELS 6 Xposition Yposition Zposition Xrotation Yrotation Zrotation
									JOINT mixamorig:RightHandThumb2
									{
										OFFSET -3.215179 -1.872803 1.924282
										CHANNELS 6 Xposition Yposition Zposition Xrotation Yrotation Zrotation
										JOINT mixamorig:RightHandThumb3
										{
											OFFSET -2.654831 -1.527969 1.512609
											CHANNELS 6 Xposition Yposition Zposition Xrotation Yrotation Zrotation
											JOINT mixamorig:RightHandThumb4
											{
												OFFSET -2.018814 -1.152008 1.108052
												CHANNELS 6 Xposition Yposition Zposition Xrotation Yrotation Zrotation
												End Site
												{
													OFFSET -188.809540 -114.533607 132.431396
												}
											}
										}
									}
								}
								JOINT mixamorig:RightHandIndex1
								{
									OFFSET -9.108284 -0.517868 2.259835
									CHANNELS 6 Xposition Yposition Zposition Xrotation Yrotation Zrotation
									JOINT mixamorig:RightHandIndex2
									{
										OFFSET -3.699989 0.000000 0.001215
										CHANNELS 6 Xposition Yposition Zposition Xrotation Yrotation Zrotation
										JOINT mixamorig:RightHandIndex3
										{
											OFFSET -2.850006 0.000031 -0.000522
											CHANNELS 6 Xposition Yposition Zposition Xrotation Yrotation Zrotation
											JOINT mixamorig:RightHandIndex4
											{
												OFFSET -2.772186 -0.000015 -0.000020
												CHANNELS 6 Xposition Yposition Zposition Xrotation Yrotation Zrotation
												End Site
												{
													OFFSET -277.218445 0.000000 -0.050231
												}
											}
										}
									}
								}
								JOINT mixamorig:RightHandMiddle1
								{
									OFFSET -9.532516 -0.000031 -0.000023
									CHANNELS 6 Xposition Yposition Zposition Xrotation Yrotation Zrotation
									JOINT mixamorig:RightHandMiddle2
									{
										OFFSET -3.700005 -0.000015 0.003713
										CHANNELS 6 Xposition Yposition Zposition Xrotation Yrotation Zrotation
										JOINT mixamorig:RightHandMiddle3
										{
											OFFSET -2.949974 0.000015 -0.002054
											CHANNELS 6 Xposition Yposition Zposition Xrotation Yrotation Zrotation
											JOINT mixamorig:RightHandMiddle4
											{
												OFFSET -2.946640 0.000000 -0.000156
												CHANNELS 6 Xposition Yposition Zposition Xrotation Yrotation Zrotation
												End Site
												{
													OFFSET -294.664337 0.000000 -0.113670
												}
											}
										}
									}
								}
								JOINT mixamorig:RightHandRing1
								{
									OFFSET -9.103600 -0.043076 -1.865134
									CHANNELS 6 Xposition Yposition Zposition Xrotation Yrotation Zrotation
									JOINT mixamorig:RightHandRing2
									{
										OFFSET -3.379288 0.000000 -0.001055
										CHANNELS 6 Xposition Yposition Zposition Xrotation Yrotation Zrotation
										JOINT mixamorig:RightHandRing3
										{
											OFFSET -2.889687 -0.000015 0.000379
											CHANNELS 6 Xposition Yposition Zposition Xrotation Yrotation Zrotation
											JOINT mixamorig:RightHandRing4
											{
												OFFSET -2.638809 -0.000015 0.000941
												CHANNELS 6 Xposition Yposition Zposition Xrotation Yrotation Zrotation
												End Site
												{
													OFFSET -263.880371 0.000000 0.516020
												}
											}
										}
									}
								}
								JOINT mixamorig:RightHandPinky1
								{
									OFFSET -8.076683 -0.486710 -3.806280
									CHANNELS 6 Xposition Yposition Zposition Xrotation Yrotation Zrotation
									JOINT mixamorig:RightHandPinky2
									{
										OFFSET -3.600014 -0.000015 -0.003747
										CHANNELS 6 Xposition Yposition Zposition Xrotation Yrotation Zrotation
										JOINT mixamorig:RightHandPinky3
										{
											OFFSET -2.099983 0.000000 -0.005739
											CHANNELS 6 Xposition Yposition Zposition Xrotation Yrotation Zrotation
											JOINT mixamorig:RightHandPinky4
											{
												OFFSET -2.115768 -0.000031 -0.003680
												CHANNELS 6 Xposition Yposition Zposition Xrotation Yrotation Zrotation
												End Site
												{
													OFFSET -211.577087 0.000000 -0.350686
												}
											}
										}
									}
								}
							}
						}
					}
				}
				JOINT mixamorig:LeftShoulder
				{
					OFFSET 4.570447 11.014725 -2.160855
					CHANNELS 6 Xposition Yposition Zposition Xrotation Yrotation Zrotation
					JOINT mixamorig:LeftArm
					{
						OFFSET 10.592371 -0.524597 -2.232119
						CHANNELS 6 Xposition Yposition Zposition Xrotation Yrotation Zrotation
						JOINT mixamorig:LeftForeArm
						{
							OFFSET 27.841532 -0.000031 0.000026
							CHANNELS 6 Xposition Yposition Zposition Xrotation Yrotation Zrotation
							JOINT mixamorig:LeftHand
							{
								OFFSET 28.328846 -0.000061 0.000022
								CHANNELS 6 Xposition Yposition Zposition Xrotation Yrotation Zrotation
								JOINT mixamorig:LeftHandThumb1
								{
									OFFSET 2.466141 -1.576172 2.681732
									CHANNELS 6 Xposition Yposition Zposition Xrotation Yrotation Zrotation
									JOINT mixamorig:LeftHandThumb2
									{
										OFFSET 3.217812 -1.872070 1.916482
										CHANNELS 6 Xposition Yposition Zposition Xrotation Yrotation Zrotation
										JOINT mixamorig:LeftHandThumb3
										{
											OFFSET 2.656029 -1.528778 1.514513
											CHANNELS 6 Xposition Yposition Zposition Xrotation Yrotation Zrotation
											JOINT mixamorig:LeftHandThumb4
											{
												OFFSET 2.020889 -1.154053 1.115139
												CHANNELS 6 Xposition Yposition Zposition Xrotation Yrotation Zrotation
												End Site
												{
													OFFSET 190.885437 -115.081749 130.048782
												}
											}
										}
									}
								}
								JOINT mixamorig:LeftHandIndex1
								{
									OFFSET 9.109314 -0.518021 2.259871
									CHANNELS 6 Xposition Yposition Zposition Xrotation Yrotation Zrotation
									JOINT mixamorig:LeftHandIndex2
									{
										OFFSET 3.699989 0.000000 -0.000322
										CHANNELS 6 Xposition Yposition Zposition Xrotation Yrotation Zrotation
										JOINT mixamorig:LeftHandIndex3
										{
											OFFSET 2.850006 0.000000 0.000352
											CHANNELS 6 Xposition Yposition Zposition Xrotation Yrotation Zrotation
											JOINT mixamorig:LeftHandIndex4
											{
												OFFSET 2.774864 -0.000031 -0.000027
												CHANNELS 6 Xposition Yposition Zposition Xrotation Yrotation Zrotation
												End Site
												{
													OFFSET 277.486267 0.000000 -0.009857
												}
											}
										}
									}
								}
								JOINT mixamorig:LeftHandMiddle1
								{
									OFFSET 9.533394 0.000061 0.000044
									CHANNELS 6 Xposition Yposition Zposition Xrotation Yrotation Zrotation
									JOINT mixamorig:LeftHandMiddle2
									{
										OFFSET 3.699989 -0.000015 -0.000231
										CHANNELS 6 Xposition Yposition Zposition Xrotation Yrotation Zrotation
										JOINT mixamorig:LeftHandMiddle3
										{
											OFFSET 2.949997 -0.000015 -0.000059
											CHANNELS 6 Xposition Yposition Zposition Xrotation Yrotation Zrotation
											JOINT mixamorig:LeftHandMiddle4
											{
												OFFSET 2.952896 0.000031 0.000063
												CHANNELS 6 Xposition Yposition Zposition Xrotation Yrotation Zrotation
												End Site
												{
													OFFSET 295.289337 0.000000 0.022810
												}
											}
										}
									}
								}
								JOINT mixamorig:LeftHandRing1
								{
									OFFSET 9.104523 -0.042999 -1.865074
									CHANNELS 6 Xposition Yposition Zposition Xrotation Yrotation Zrotation
									JOINT mixamorig:LeftHandRing2
									{
										OFFSET 3.150009 -0.000031 0.000043
										CHANNELS 6 Xposition Yposition Zposition Xrotation Yrotation Zrotation
										JOINT mixamorig:LeftHandRing3
										{
											OFFSET 2.949982 -0.000015 0.000040
											CHANNELS 6 Xposition Yposition Zposition Xrotation Yrotation Zrotation
											JOINT mixamorig:LeftHandRing4
											{
												OFFSET 2.644348 0.000000 0.000057
												CHANNELS 6 Xposition Yposition Zposition Xrotation Yrotation Zrotation
												End Site
												{
													OFFSET 264.434631 0.000000 0.012105
												}
											}
										}
									}
								}
								JOINT mixamorig:LeftHandPinky1
								{
									OFFSET 8.077789 -0.486847 -3.806259
									CHANNELS 6 Xposition Yposition Zposition Xrotation Yrotation Zrotation
									JOINT mixamorig:LeftHandPinky2
									{
										OFFSET 3.599953 0.000031 0.014727
										CHANNELS 6 Xposition Yposition Zposition Xrotation Yrotation Zrotation
										JOINT mixamorig:LeftHandPinky3
										{
											OFFSET 2.100021 0.000015 0.007705
											CHANNELS 6 Xposition Yposition Zposition Xrotation Yrotation Zrotation
											JOINT mixamorig:LeftHandPinky4
											{
												OFFSET 2.125504 0.000031 0.007517
												CHANNELS 6 Xposition Yposition Zposition Xrotation Yrotation Zrotation
												End Site
												{
													OFFSET 212.550781 0.000000 0.625752
												}
											}
										}
									}
								}
							}
						}
					}
				}
			}
		}
	}
	JOINT mixamorig:RightUpLeg
	{
		OFFSET -8.207787 -6.751648 -1.599560
		CHANNELS 6 Xposition Yposition Zposition Xrotation Yrotation Zrotation
		JOINT mixamorig:RightLeg
		{
			OFFSET -0.000002 -44.370117 0.345942
			CHANNELS 6 Xposition Yposition Zposition Xrotation Yrotation Zrotation
			JOINT mixamorig:RightFoot
			{
				OFFSET 0.000003 -44.423679 -3.043532
				CHANNELS 6 Xposition Yposition Zposition Xrotation Yrotation Zrotation
				JOINT mixamorig:RightToeBase
				{
					OFFSET -0.000002 -8.728671 10.710558
					CHANNELS 6 Xposition Yposition Zposition Xrotation Yrotation Zrotation
					JOINT mixamorig:RightToe_End
					{
						OFFSET -0.000001 -0.000679 9.278119
						CHANNELS 6 Xposition Yposition Zposition Xrotation Yrotation Zrotation
						End Site
						{
							OFFSET 0.000000 -0.067690 927.812134
						}
					}
				}
			}
		}
	}
	JOINT mixamorig:LeftUpLeg
	{
		OFFSET 8.207793 -6.751686 -1.599556
		CHANNELS 6 Xposition Yposition Zposition Xrotation Yrotation Zrotation
		JOINT mixamorig:LeftLeg
		{
			OFFSET -0.000004 -44.370014 0.346954
			CHANNELS 6 Xposition Yposition Zposition Xrotation Yrotation Zrotation
			JOINT mixamorig:LeftFoot
			{
				OFFSET -0.000001 -44.423672 -3.044401
				CHANNELS 6 Xposition Yposition Zposition Xrotation Yrotation Zrotation
				JOINT mixamorig:LeftToeBase
				{
					OFFSET -0.000002 -8.728669 10.710558
					CHANNELS 6 Xposition Yposition Zposition Xrotation Yrotation Zrotation
					JOINT mixamorig:LeftToe_End
					{
						OFFSET -0.000003 -0.000679 9.278133
						CHANNELS 6 Xposition Yposition Zposition Xrotation Yrotation Zrotation
						End Site
						{
							OFFSET 0.000000 -0.068021 927.813477
						}
					}
				}
			}
		}
	}
}
MOTION
Frames: 3
Frame Time: 0.033333
0.000006 104.270477 1.554256 0.000010 0.000003 -0.000113 -0.000005 10.181587 0.131522 0.000001 -0.000003 0.000084 -0.000000 9.893967 -1.470711 0.000001 0.000000 -0.000000 -0.000000 9.220802 -1.370642 0.000000 -0.000000 -0.000000 0.000001 16.740433 -2.049030 0.000000 -0.000000 -0.000000 0.000000 9.617859 1.685014 0.000000 0.000000 0.000000 0.000002 22.037384 7.501101 0.000000 -0.000000 0.000000 -4.569968 11.014880 -2.160881 0.000008 0.000001 -0.000038 -10.592847 -0.524817 -2.231818 30.423247 54.343335 -15.891313 -27.841515 0.000010 0.000552 -41.655906 103.026901 51.140983 -28.328840 0.000003 0.000025 -0.000321 -0.000046 0.000009 -2.464340 -1.573951 2.682270 -32.669314 -130.355335 12.181059 -3.215126 -1.872422 1.924567 129.453163 26.271783 61.550263 -2.654932 -1.527744 1.512966 137.338480 29.771927 23.791639 -2.018835 -1.151979 1.108065 -0.000002 -0.000000 0.000009 -9.108304 -0.517503 2.260185 120.645224 2.815875 -5.008887 -3.699862 0.000313 0.001761 171.052143 -4.279598 51.146618 -2.849964 -0.000171 -0.000136 -104.166662 -14.396731 -18.421126 -2.772169 -0.000001 -0.000022 0.000001 -0.000001 -0.000001 -9.532463 0.000312 0.000405 138.307820 -4.918775 12.611135 -3.699886 -0.000217 0.004100 243.939824 -22.843376 -36.035870 -2.949953 -0.000217 -0.001803 285.954749 -10.410866 -7.866255 -2.946633 0.000014 -0.000146 0.000000 -0.000003 0.000001 -9.103539 -0.042736 -1.864645 157.226898 -5.546972 27.175991 -3.379127 -0.000265 -0.000731 256.340059 -27.414764 -34.451877 -2.889679 -0.000207 0.000577 296.873517 -10.124545 -6.199998 -2.638817 0.000015 0.000943 -0.000000 0.000001 0.000000 -8.076493 -0.486362 -3.805784 161.912967 -9.900465 57.365857 -3.599857 -0.000298 -0.003397 251.197965 -31.085297 -43.036779 -2.099887 -0.000248 -0.005578 -65.936454 -18.600617 -12.297836 -2.115784 -0.000041 -0.003681 -0.000000 -0.000000 -0.000003 4.570446 11.014691 -2.160851 -0.000018 0.000010 -0.000021 10.592426 -0.524564 -2.232343 39.770463 -37.916207 14.165338 27.841824 0.000008 -0.000176 135.775473 -78.307975 126.961783 28.328842 -0.000028 0.000024 0.000017 -0.000087 -0.000001 2.466120 -1.576180 2.681880 6.503119 133.523231 -67.591525 3.217460 -1.871828 1.916494 123.565212 -6.203162 -122.251357 2.655809 -1.528442 1.514441 131.856747 -26.869271 -65.415263 2.020880 -1.154081 1.115144 0.000000 0.000007 0.000004 9.109328 -0.517652 2.259815 143.042234 -1.256486 3.727692 3.699909 0.000399 -0.000337 162.299570 3.481046 -22.016019 2.849716 0.000189 0.000396 177.997516 2.974497 -112.098683 2.774884 -0.000046 -0.000040 -0.000000 -0.000003 -0.000002 9.533341 0.000460 0.000080 174.104555 1.034855 -20.006106 3.700045 0.000165 -0.000013 263.725625 12.179535 13.582518 2.950019 0.000011 0.000092 307.745894 4.507119 2.210196 2.952862 -0.000029 0.000063 -0.000001 0.000000 -0.000002 9.104656 -0.042913 -1.865007 183.872435 3.918497 -269.367634 3.150052 0.000089 0.000202 272.949632 22.986295 21.858986 2.949996 0.000030 0.000148 314.197089 8.763140 3.707138 2.644334 0.000032 0.000059 -0.000000 0.000003 -0.000000 8.077919 -0.486617 -3.806175 185.936464 3.640976 -307.355726 3.599990 0.000154 0.014923 265.761131 18.407584 19.224442 2.100010 0.000008 0.007836 315.408246 13.909743 5.506441 2.125525 -0.000023 0.007517 -0.000001 -0.000001 -0.000002 -8.207786 -6.751667 -1.599560 -0.077001 -0.000003 0.000080 -0.000002 -44.370110 0.345938 0.153719 -0.000000 -0.000000 0.000000 -44.423679 -3.043532 -0.076700 0.000000 -0.000002 -0.000006 -8.728667 10.710559 -0.000009 -0.000000 -0.000000 -0.000001 -0.000679 9.278123 0.000000 -0.000000 -0.000000 8.207792 -6.751710 -1.599556 -0.074518 -0.000003 0.000081 -0.000002 -44.370014 0.346960 0.148822 0.000002 0.000000 -0.000001 -44.423664 -3.044403 -0.074314 0.000000 -0.000002 -0.000004 -8.728671 10.710558 0.000007 -0.000000 -0.000000 0.000000 -0.000680 9.278137 -0.000000 0.000000 -0.000001 
0.000006 104.270477 1.554256 0.000010 0.000003 -0.000113 -0.000005 10.181587 0.131522 0.000001 -0.000003 0.000084 -0.000000 9.893967 -1.470711 0.000001 0.000000 -0.000000 -0.000000 9.220802 -1.370642 0.000000 -0.000000 -0.000000 0.000001 16.740433 -2.049030 0.000000 -0.000000 -0.000000 0.000000 9.617859 1.685014 0.000000 0.000000 0.000000 0.000002 22.037384 7.501101 0.000000 -0.000000 0.000000 -4.569968 11.014880 -2.160881 0.000008 0.000001 -0.000038 -10.592844 -0.524806 -2.231810 30.739611 55.907062 -16.598396 -27.841513 0.000005 0.000561 -41.735280 103.233760 51.399762 -28.328821 0.000005 0.000025 -0.000321 -0.000044 0.000007 -2.464350 -1.573944 2.682248 -38.595770 -132.614133 3.591094 -3.215129 -1.872400 1.924551 128.370947 25.501176 62.064583 -2.654895 -1.527717 1.512941 135.441927 29.239835 28.697381 -2.018827 -1.152000 1.108063 -0.000001 -0.000003 0.000002 -9.108311 -0.517534 2.260190 120.785557 2.369198 -4.237396 -3.699956 0.000304 0.001749 168.832373 -2.265186 23.010731 -2.849948 -0.000171 -0.000096 -108.621919 -12.928421 -17.929422 -2.772146 -0.000016 -0.000019 -0.000001 -0.000002 -0.000001 -9.532454 0.000291 0.000407 139.818849 -5.053524 13.491248 -3.699907 -0.000208 0.004102 247.408522 -21.019880 -31.237416 -2.949946 -0.000214 -0.001796 289.989997 -9.300955 -6.526006 -2.946629 0.000001 -0.000145 -0.000003 0.000000 0.000005 -9.103535 -0.042725 -1.864648 156.036956 -5.665410 26.369023 -3.379148 -0.000253 -0.000736 256.769487 -26.322663 -32.867178 -2.889678 -0.000190 0.000553 298.318320 -9.677763 -5.758462 -2.638811 -0.000003 0.000933 -0.000001 -0.000000 -0.000005 -8.076495 -0.486370 -3.805786 160.379440 -9.911245 53.531345 -3.599841 -0.000297 -0.003398 251.862789 -30.736630 -42.107385 -2.099918 -0.000251 -0.005605 -63.609033 -18.446080 -11.664805 -2.115783 -0.000041 -0.003677 0.000000 -0.000001 -0.000003 4.570446 11.014691 -2.160851 -0.000018 0.000010 -0.000021 10.592426 -0.524557 -2.232341 39.959721 -37.422361 14.040372 27.841822 0.000033 -0.000181 134.198683 -77.920273 124.834958 28.328823 -0.000023 0.000021 0.000019 -0.000087 0.000003 2.466123 -1.576180 2.681890 5.701693 133.649891 -66.718271 3.217473 -1.871810 1.916486 123.359186 -7.055436 -119.921893 2.655797 -1.528440 1.514439 130.744506 -25.976715 -67.001526 2.020891 -1.154068 1.115148 0.000003 0.000004 0.000002 9.109312 -0.517670 2.259810 141.985535 -0.184512 0.506465 3.699831 0.000375 -0.000327 165.285783 6.491971 -47.376046 2.849886 -0.000017 0.000403 180.892806 7.546297 -193.457049 2.774877 -0.000031 -0.000038 0.000000 0.000001 0.000001 9.533225 0.000436 0.000071 171.394786 3.874674 -48.460107 3.700047 0.000151 -0.000021 256.847652 15.198627 19.097438 2.950023 0.000034 0.000134 299.761976 6.263590 3.634450 2.952861 -0.000016 0.000068 0.000002 0.000000 -0.000001 9.104440 -0.043031 -1.865017 180.928405 6.379501 -196.574347 3.150053 0.000117 0.000200 265.830744 23.623017 25.349836 2.949995 0.000048 0.000192 307.666254 7.486796 3.681716 2.644325 0.000017 0.000055 -0.000002 -0.000001 -0.000000 8.077869 -0.486805 -3.806183 183.248825 5.611625 -251.703290 3.600020 0.000159 0.014932 258.214400 17.606025 20.927025 2.100001 0.000031 0.007856 305.044718 12.789913 6.407409 2.125500 -0.000018 0.007512 -0.000001 -0.000002 -0.000002 -8.207786 -6.751667 -1.599560 -0.077001 -0.000003 0.000080 -0.000002 -44.370110 0.345938 0.153719 -0.000000 -0.000000 0.000000 -44.423679 -3.043532 -0.076700 0.000000 -0.000002 -0.000006 -8.728667 10.710559 -0.000009 -0.000000 -0.000000 -0.000001 -0.000679 9.278123 0.000000 -0.000000 -0.000000 8.207792 -6.751710 -1.599556 -0.074518 -0.000003 0.000081 -0.000002 -44.370014 0.346960 0.148822 0.000002 0.000000 -0.000001 -44.423664 -3.044403 -0.074314 0.000000 -0.000002 -0.000004 -8.728671 10.710558 0.000007 -0.000000 -0.000000 0.000000 -0.000680 9.278137 -0.000000 0.000000 -0.000001 
0.000006 104.270477 1.554256 0.000010 0.000003 -0.000113 -0.000005 10.181587 0.131522 0.000001 -0.000003 0.000084 -0.000000 9.893967 -1.470711 0.000001 0.000000 -0.000000 -0.000000 9.220802 -1.370642 0.000000 -0.000000 -0.000000 0.000001 16.740433 -2.049030 0.000000 -0.000000 -0.000000 0.000000 9.617859 1.685014 0.000000 0.000000 0.000000 0.000002 22.037384 7.501101 0.000000 -0.000000 0.000000 -4.569968 11.014880 -2.160881 0.000008 0.000001 -0.000038 -10.592846 -0.524814 -2.231818 30.919092 54.454342 -16.197700 -27.841511 0.000035 0.000554 -42.151358 103.706929 52.271755 -28.328835 0.000006 0.000027 -0.000322 -0.000046 0.000006 -2.464348 -1.573934 2.682247 -37.460490 -132.315845 5.315437 -3.215101 -1.872418 1.924547 127.311120 24.637942 63.712257 -2.654904 -1.527691 1.512941 132.351444 28.052572 35.276353 -2.018823 -1.151986 1.108061 -0.000002 -0.000005 0.000000 -9.108310 -0.517521 2.260190 120.914579 2.435277 -4.365086 -3.699714 -0.000112 0.001745 183.687146 -7.642667 -128.908592 -2.849970 -0.000188 -0.000177 -93.502899 -14.408702 -15.308254 -2.772160 -0.000019 -0.000018 -0.000002 0.000000 -0.000001 -9.532444 0.000312 0.000408 141.296861 -5.211194 14.490648 -3.699906 -0.000226 0.004067 254.212319 -21.849570 -28.763327 -2.949948 -0.000226 -0.001822 291.830187 -11.260909 -7.638071 -2.946638 0.000026 -0.000151 -0.000001 -0.000002 0.000002 -9.103519 -0.042724 -1.864637 159.210316 -5.970434 31.865513 -3.379149 -0.000247 -0.000757 261.714353 -26.215618 -30.112549 -2.889667 -0.000207 0.000571 298.523362 -9.963431 -5.905671 -2.638821 0.000001 0.000941 0.000000 -0.000002 0.000002 -8.076463 -0.486383 -3.805783 163.836786 -10.275725 64.900109 -3.599838 -0.000288 -0.003438 258.429332 -30.558481 -37.531114 -2.099890 -0.000238 -0.005596 -63.264976 -18.003846 -11.309856 -2.115776 -0.000040 -0.003676 0.000001 -0.000000 -0.000003 4.570446 11.014691 -2.160851 -0.000018 0.000010 -0.000021 10.592424 -0.524561 -2.232337 40.088976 -36.699904 13.800328 27.841822 0.000037 -0.000177 133.667567 -77.771457 124.101423 28.328827 -0.000029 0.000021 0.000020 -0.000089 0.000002 2.466107 -1.576186 2.681885 0.103401 133.225667 -59.497040 3.217468 -1.871807 1.916476 123.159212 -7.738901 -117.806092 2.655814 -1.528421 1.514433 131.887388 -27.030405 -61.898576 2.020894 -1.154055 1.115150 0.000003 0.000001 0.000004 9.109306 -0.517652 2.259807 143.096889 0.132672 -0.427465 3.699903 0.000398 -0.000343 159.322031 4.545400 -24.488842 2.849973 0.000422 0.000353 163.492695 1.447901 -369.963753 2.774883 -0.000046 -0.000031 0.000002 -0.000005 -0.000001 9.533221 0.000442 0.000085 174.955774 2.123719 -45.721788 3.700030 0.000143 -0.000016 264.481017 11.432324 12.584253 2.950022 0.000030 0.000091 309.116194 3.369224 1.601941 2.952865 -0.000018 0.000065 -0.000000 -0.000004 0.000000 9.104622 -0.042920 -1.865003 184.384221 4.739047 -265.579721 3.150046 0.000096 0.000201 273.493397 21.843894 20.577644 2.949982 0.000033 0.000169 314.935897 7.182650 2.982368 2.644321 0.000031 0.000063 -0.000001 0.000001 0.000001 8.077915 -0.486625 -3.806173 186.205724 4.105160 -302.883291 3.599991 0.000149 0.014927 265.608244 16.969340 17.735170 2.100018 0.000041 0.007844 314.345222 12.084197 4.883679 2.125518 0.000003 0.007513 0.000001 -0.000000 0.000000 -8.207786 -6.751667 -1.599560 -0.077001 -0.000003 0.000080 -0.000002 -44.370110 0.345938 0.153719 -0.000000 -0.000000 0.000000 -44.423679 -3.043532 -0.076700 0.000000 -0.000002 -0.000006 -8.728667 10.710559 -0.000009 -0.000000 -0.000000 -0.000001 -0.000679 9.278123 0.000000 -0.000000 -0.000000 8.207792 -6.751710 -1.599556 -0.074518 -0.000003 0.000081 -0.000002 -44.370014 0.346960 0.148822 0.000002 0.000000 -0.000001 -44.423664 -3.044403 -0.074314 0.000000 -0.000002 -0.000004 -8.728671 10.710558 0.000007 -0.000000 -0.000000 0.000000 -0.000680 9.278137 -0.000000 0.000000 -0.000001 
